# xmcd
#
# Track frame offsets: 
#        150
#        12769
#        25427
#        38367
#        52689
#        66223
#        81147
#        95653
#        110313
#        123676
#        135462
#        146093
#        159184
#        171013
#        185072
#        196696
#        209585
#        222922
#        236241
#        248499
#        260055
#        273049
#
# Disc length: 3790 seconds
#
# Revision: 1
# Processed by: cddbd v1.5.2PL0 Copyright (c) Steve Scherf et al.
# Submitted via: ExactAudioCopyFreeDBPlugin 1.0
#
DISCID=310ecc16
DTITLE=Various Artist - Jazz Piano Masters 4
DYEAR=2005
DGENRE=Jazz
TTITLE0=E. Hines - Chicago High Life
TTITLE1=E. Hines - Stowaway
TTITLE2=E. Hines - Panther Rag
TTITLE3=E. Hines - Just too soon
TTITLE4=E. Hines - Caution Blues
TTITLE5=E. Hines - A Monday Date
TTITLE6=Graham - Williams - I Ain't Got Nobody
TTITLE7=E. Hines - Fifty-Seven Varieties
TTITLE8=Yellen - Dougherty Ager - Glad Rag Doll
TTITLE9=Crosby - Washington - Young - Love Me Tonight
TTITLE10=Broclman - Olman - Down Among The Sheltering Palms
TTITLE11=E. Hines - Rhythm Sunday
TTITLE12=E. Hines - Pianology
TTITLE13=E. Hines - Woode - Rosetta
TTITLE14=E. Hines - Piano Man
TTITLE15=Heyman - Sour - Eyton - Green - Body and Soul
TTITLE16=E. Hines - Tantalizing A Cuban
TTITLE17=E. Hines - Blues in Thirds
TTITLE18=Hirsch - Marks - G.T. Stomp
TTITLE19=Fields - McHugh - On The Sunny Side Of The Street
TTITLE20=E. Hines - Blue Keys
TTITLE21=Burnett - Norton - My Melancholy Baby
EXTD=YEAR: 1950
EXTT0=
EXTT1=
EXTT2=
EXTT3=
EXTT4=
EXTT5=
EXTT6=
EXTT7=
EXTT8=
EXTT9=
EXTT10=
EXTT11=
EXTT12=
EXTT13=
EXTT14=
EXTT15=
EXTT16=
EXTT17=
EXTT18=
EXTT19=
EXTT20=
EXTT21=
PLAYORDER=
